PathFileType	4	(X/Y/Z)	C:/Users/beibeiliu/ov580/test_trc/User3\sequence.30_training_dense_left.trc
DataRate	CameraRate	NumFrames	NumMarkers	Units	OrigDataRate	OrigDataStartFrame	OrigNumFrames
120	120	13	19	mm	120	180	239
Frame#	Time	ThumbCMC			ThumbMCP			ThumbIP			ThumbTip			IndexMCP			IndexPIP			IndexTip			MiddleMCP			MiddlePIP			MiddleTip			RingMCP			RingPIP			RingTip			PinkyMCP			PinkyPIP			PinkyTip			BackHand1			BackHand2			BackHand3	
		X0	Y0	Z0	X1	Y1	Z1	X2	Y2	Z2	X3	Y3	Z3	X4	Y4	Z4	X5	Y5	Z5	X6	Y6	Z6	X7	Y7	Z7	X8	Y8	Z8	X9	Y9	Z9	X10	Y10	Z10	X11	Y11	Z11	X12	Y12	Z12	X13	Y13	Z13	X14	Y14	Z14	X15	Y15	Z15	X16	Y16	Z16	X17	Y17	Z17	X18	Y18	Z18	
179	1.49167	-138.092	-15.6537	28.4984	-114.18	-15.8936	13.2833	-91.5754	-18.3355	-9.8951	-79.3381	-26.6586	-25.7116	-126.773	-11.9769	-54.7176	-105.505	-23.7859	-71.2673	-95.4691	-53.7851	-59.9125	-144.541	-20.7527	-63.88	-124.49	-39.6691	-82.4383	-115.488	-66.9283	-54.8158	-161.626	-39.6891	-62.4308	-140.963	-57.1181	-76.752	-128.455	-75.9755	-49.1316	-174.38	-55.2597	-56.0538	-153.379	-69.4543	-66.7563	-138.704	-86.8817	-49.8523	-189.659	-27.5686	-15.9269	-198.305	-26.3146	12.228	-169.704	-6.92975	7.65283	
180	1.5	-141.38	-10.0501	24.0376	-115.58	-7.95553	11.0446	-90.9005	-10.8149	-14.9888	-83.964	-26.4504	-34.2002	-137.476	-10.2553	-53.7196	-113.041	-24.0211	-75.1321	-95.9287	-43.7056	-55.2095	-149.279	-19.4065	-69.0343	-127.214	-37.7726	-86.1546	-113.308	-60.5452	-57.6499	-161.936	-39.9889	-67.1299	-140.465	-54.2098	-78.6947	-125.93	-72.2509	-50.227	-169.169	-56.6309	-54.1143	-150.123	-71.865	-64.2136	-133.303	-86.102	-44.9594	-187.831	-26.297	-18.4015	-202.232	-27.9868	5.71742	-173.845	-9.13045	3.96192	
181	1.50833	-146.066	-5.64503	19.5233	-116.035	0.183126	3.75148	-95.8633	-4.75332	-15.5174	-89.8056	-25.18	-36.1555	-143.02	-5.2201	-60.4529	-122.359	-16.1041	-78.8873	-100.829	-32.6954	-53.4151	-159.281	-21.0641	-69.0568	-137.031	-31.3306	-90.2751	-115.455	-54.9414	-61.1105	-165.054	-43.0845	-62.8311	-137.867	-57.8585	-76.7812	-123.479	-67.4066	-51.6524	-170.078	-64.2252	-51.1184	-141.949	-72.5548	-57.9934	-127.166	-83.2091	-34.2914	-190.681	-29.9679	-19.1457	-203.677	-33.2324	9.51077	-178.308	-8.17865	-2.93339	
182	1.51667	-153.23	-0.823156	19.1666	-122.846	5.78775	-0.0969058	-101.212	-1.44934	-22.5415	-97.2002	-23.6614	-36.4304	-154.755	-3.43328	-59.8536	-133.534	-10.6892	-83.9004	-109.349	-23.8192	-59.2377	-167.785	-20.3381	-70.55	-144.072	-33.8222	-93.4062	-120.738	-46.4535	-69.9994	-162.56	-40.5053	-66.5082	-138.215	-55.8231	-76.3124	-122.086	-62.5511	-45.6285	-163.981	-64.4061	-51.913	-140.117	-76.7014	-53.9997	-126.408	-75.4284	-24.849	-193.97	-36.1907	-19.1486	-205.638	-34.8601	9.78041	-184.626	-7.52417	-1.94778	
183	1.525	-159.474	2.41552	13.9586	-128.652	10.3632	-3.73623	-108.457	2.20282	-25.7567	-109.801	-25.3523	-36.3457	-164.866	-5.73713	-63.6431	-139.078	-8.58488	-87.3983	-116.778	-15.1825	-66.4173	-175.199	-24.6062	-69.2166	-150.52	-33.2893	-95.657	-123.157	-41.2219	-69.3075	-165.895	-44.2671	-65.2462	-138.343	-57.4144	-74.7215	-122.704	-55.4183	-46.6867	-163.158	-66.1219	-49.4489	-134.539	-68.7334	-48.2597	-123.923	-66.1685	-21.9797	-196.031	-35.2493	-17.5991	-208.918	-40.0733	8.08977	-191.416	-8.57979	-2.28574	
184	1.53333	-163.424	6.95047	9.05885	-134.825	13.3221	-7.25539	-116.204	2.74109	-28.9522	-112.551	-20.3328	-37.8044	-172.221	-5.75521	-63.098	-154.142	-8.07634	-89.7013	-126.493	-14.9992	-72.4036	-178.239	-27.4454	-75.1047	-156.464	-30.0239	-97.2065	-125.485	-35.3315	-71.6975	-165.537	-47.3553	-68.1868	-137.33	-53.1027	-72.9181	-124.801	-49.7079	-39.7168	-158.859	-65.1335	-49.8162	-131.546	-64.3131	-44.4597	-129.127	-60.8023	-15.2094	-198.948	-39.0331	-20.5504	-207.37	-40.2142	9.22064	-195.353	-8.6167	-6.77574	
185	1.54167	-169.93	8.57114	8.18533	-142.735	15.597	-11.9318	-122.399	6.52464	-34.9475	-120.461	-20.2716	-40.3035	-180.453	-6.2037	-67.4329	-163.065	-9.43433	-92.3383	-134.7	-11.3475	-75.8123	-181.005	-24.3937	-75.9635	-156.653	-32.2232	-95.4304	-129.639	-31.54	-67.6239	-166.408	-45.3918	-63.7639	-136.464	-48.2028	-71.6269	-128.634	-41.9239	-37.6385	-160.91	-60.9508	-46.5042	-130.542	-60.6153	-38.9278	-132.871	-51.1443	-13.8843	-201.652	-40.2091	-21.4304	-208.804	-40.2366	5.56661	-200.605	-8.72668	-8.43604	
186	1.55	-181.14	12.5661	5.09045	-153.478	19.3959	-16.1603	-130.703	13.9781	-37.2301	-123.674	-12.0218	-44.0915	-187.179	-8.93381	-66.5726	-165.513	-10.3974	-94.7806	-142.014	-6.15815	-77.742	-181.26	-29.6937	-74.4307	-150.574	-27.2182	-92.5852	-132.699	-23.4766	-58.9137	-163.238	-43.1052	-66.7915	-133.419	-44.6104	-63.1362	-135.938	-35.4826	-28.9734	-155.485	-62.533	-47.5673	-132.404	-52.0922	-40.1743	-137.862	-39.2712	-11.5594	-203.842	-49.1579	-20.0649	-213.727	-46.2135	5.23351	-209.545	-11.5701	-7.23243	
187	1.55833	-186.738	6.76551	3.51501	-161.601	17.5205	-16.6311	-137.388	15.3703	-39.581	-126.141	-8.34214	-49.7499	-188.862	-12.2673	-72.3905	-168.303	-8.82503	-95.601	-143.382	-0.748486	-68.9479	-176.075	-25.6881	-78.9071	-144.156	-24.6966	-85.6807	-136.932	-17.8139	-48.932	-160.806	-40.3704	-65.0887	-132.314	-35.2105	-57.3684	-137.648	-29.4116	-26.0343	-153.123	-59.6955	-46.7304	-130.444	-47.9436	-35.0195	-141.208	-37.5921	-8.49951	-202.647	-46.3293	-24.7672	-211.173	-51.5872	5.60079	-212.673	-19.7554	-11.9402	
188	1.56667	-190.475	7.77174	1.61472	-164.146	19.3171	-20.4604	-141.962	16.4943	-42.9427	-128.922	-7.58419	-51.6448	-186.059	-11.3696	-73.5626	-159.492	-4.32618	-90.6577	-145.11	2.37326	-58.402	-171.037	-29.2288	-72.9002	-138.513	-17.5689	-74.5439	-145.691	-12.3375	-32.4364	-156.684	-42.4795	-60.372	-130.226	-33.1768	-47.0543	-145.904	-24.2731	-17.9893	-150.152	-54.4642	-45.5096	-131.077	-44.5552	-31.3244	-144.536	-37.1256	-5.60252	-202.954	-54.4123	-25.859	-212.773	-52.7246	8.73488	-214.977	-21.8569	-13.958	
189	1.575	-192.193	7.30563	0.113158	-168.071	15.2316	-21.0973	-144.677	18.5141	-42.0173	-128.657	-4.33759	-55.0508	-183.3	-5.9695	-72.1754	-150.738	3.70624	-79.6824	-149.331	8.67622	-46.3512	-167.085	-24.038	-70.7312	-135.473	-14.7965	-62.6758	-150.88	-14.4021	-24.1642	-155.729	-36.2651	-58.5822	-131.497	-29.2674	-37.3956	-152.835	-21.9574	-11.443	-149.454	-53.5398	-44.4874	-135.72	-38.5474	-29.179	-153.766	-32.8881	-4.02121	-206.218	-51.2257	-22.6105	-214.29	-54.1127	8.20449	-215.716	-19.8159	-11.5497	
190	1.58333	-194.637	10.1502	0.160846	-168.44	19.9591	-22.7552	-146.346	19.1361	-44.2025	-131.918	-2.47431	-54.0907	-180.186	-4.4048	-69.0292	-148.594	3.38189	-67.9571	-158.396	5.3559	-33.5584	-165.236	-21.8202	-67.6863	-137.219	-8.57293	-51.586	-155.791	-14.0776	-18.2271	-157.259	-40.1821	-52.87	-136.244	-24.9605	-34.932	-157.431	-24.8767	-6.71485	-155.719	-53.2239	-41.853	-139.641	-35.9128	-24.5551	-161.633	-32.3637	-0.936344	-203.008	-54.4838	-26.3376	-212.291	-55.6502	4.53573	-219.082	-19.6432	-8.75486	
191	1.59167	-197.073	7.20543	-1.7587	-174.544	22.5268	-19.3284	-152.823	22.3144	-40.5397	-138.645	-1.60178	-50.4713	-177.96	-2.24522	-67.118	-148.683	7.44277	-56.0691	-163.686	0.471214	-27.1749	-166.769	-20.6627	-65.268	-139.64	-11.3556	-48.9853	-162.766	-14.5924	-13.5642	-158.809	-32.6674	-53.5544	-139.6	-25.7061	-29.8172	-161.727	-25.7021	-5.10795	-157.321	-48.6299	-41.338	-141.876	-35.8594	-22.6849	-167.221	-34.1667	-2.19013	-206.604	-54.8503	-25.7038	-214.141	-55.5342	4.37941	-219.452	-24.5032	-8.50828	
